<svg width="30" height="26" viewBox="0 0 30 26" fill="none" xmlns="http://www.w3.org/2000/svg">
<path d="M13.5715 0.16318C10.5594 0.0795122 7.88206 2.29671 7.54739 5.26691C7.38006 6.77293 7.9239 9.28297 9.97376 9.91047C14.2408 11.2073 20.6414 7.60961 23.4024 6.35459C23.9044 6.14542 24.4483 6.64743 24.1973 7.14944C23.0259 9.4503 19.5119 13.5919 9.72275 12.3787C2.48549 11.04 0.561134 13.55 0.393798 16.3947C0.142795 21.7913 5.16286 26.0165 10.4758 25.0125C11.5634 24.8033 12.7766 24.4268 14.0735 23.8412C18.3405 21.9586 21.7291 18.5283 23.8208 14.3449C24.8666 12.295 26.289 9.74314 28.0878 7.44228C31.9784 2.42221 25.8706 0.205014 18.0895 0.205014C16.1652 0.205014 14.701 0.205014 13.5715 0.16318Z" fill="#2F3238"/>
</svg>
